<svg width="202" height="81" viewBox="0 0 202 81" fill="none" xmlns="http://www.w3.org/2000/svg">
<path d="M44.9666 19.2669C48.6333 19.2669 51.6333 16.2669 51.6333 12.6003C51.6333 8.93359 48.6333 5.93359 44.9666 5.93359C41.3 5.93359 38.3 8.93359 38.3 12.6003C38.3 16.2669 41.3 19.2669 44.9666 19.2669ZM32.9666 65.6003L36.3 50.9336L43.3 57.6003V77.6003H49.9666V52.6003L42.9666 45.9336L44.9666 35.9336C49.3 40.9336 55.9666 44.2669 63.3 44.2669V37.6003C56.9666 37.6003 51.6333 34.2669 48.9666 29.6003L45.6333 24.2669C44.3 22.2669 42.3 20.9336 39.9666 20.9336C38.9666 20.9336 38.3 21.2669 37.3 21.2669L19.9666 28.6003V44.2669H26.6333V32.9336L32.6333 30.6003L27.3 57.6003L10.9666 54.2669L9.6333 60.9336L32.9666 65.6003Z" fill="#FF7F37"/>
<path d="M104.405 18.2669C108.026 18.2669 110.988 15.2669 110.988 11.6003C110.988 7.93359 108.026 4.93359 104.405 4.93359C100.784 4.93359 97.8215 7.93359 97.8215 11.6003C97.8215 15.2669 100.784 18.2669 104.405 18.2669ZM92.2256 62.5214L95.8465 49.9336L97.8215 62.5214L96.1203 76.6003H102.704L104.405 62.5214L102.43 44.9336L104.405 34.9336C108.684 39.9336 115.267 43.2669 122.509 43.2669V36.6003C116.255 36.6003 110.988 33.2669 108.355 28.6003L105.063 23.2669C103.746 21.2669 101.771 19.9336 99.4673 19.9336C98.4798 19.9336 97.8215 20.2669 96.834 20.2669L79.7173 27.6003V43.2669H86.3006V31.9336L92.2256 29.6003L86.959 56.6003L73.7754 64.6003L78.0905 71.0928L92.2256 62.5214Z" fill="#FF7F37"/>
<path d="M166.967 19.2669C170.633 19.2669 173.633 16.2669 173.633 12.6003C173.633 8.93359 170.633 5.93359 166.967 5.93359C163.3 5.93359 160.3 8.93359 160.3 12.6003C160.3 16.2669 163.3 19.2669 166.967 19.2669ZM154.967 65.6003L158.3 50.9336L165.3 57.6003V77.6003H171.967V52.6003L164.967 45.9336L166.967 35.9336C171.3 40.9336 177.967 44.2669 185.3 44.2669V37.6003C178.967 37.6003 173.633 34.2669 170.967 29.6003L167.633 24.2669C166.3 22.2669 164.3 20.9336 161.967 20.9336C160.967 20.9336 160.3 21.2669 159.3 21.2669L141.967 28.6003V44.2669H148.633V32.9336L154.633 30.6003L149.3 57.6003L132.967 54.2669L131.633 60.9336L154.967 65.6003Z" fill="#FF7F37"/>
</svg>
